<svg xmlns="http://www.w3.org/2000/svg" viewBox="0 0 128 128" role="img" aria-label="ALADIN">
<defs><linearGradient id="n" x1="0" y1="0" x2="1" y2="1"><stop stop-color="#0d5db5"/><stop offset="1" stop-color="#082b4c"/></linearGradient><linearGradient id="g" x1="0" y1="0" x2="1" y2="1"><stop stop-color="#ffe08a"/><stop offset=".55" stop-color="#e7b43d"/><stop offset="1" stop-color="#b97914"/></linearGradient></defs>
<rect x="6" y="6" width="116" height="116" rx="25" fill="url(#n)" stroke="url(#g)" stroke-width="5"/>
<path d="M50 24h30l15 15v41H50z" fill="#fff" opacity=".96"/><path d="M80 24v17h17" fill="none" stroke="#77b7ff" stroke-width="4"/><path d="M59 48h24M59 58h24M59 68h17" stroke="#2d8ef0" stroke-width="4" stroke-linecap="round"/>
<path d="M22 83c7-10 16-14 27-11 6 2 11 6 18 7 9 1 19-2 31-10-3 11-12 19-25 24-15 6-31 6-51-10Z" fill="url(#g)"/>
<path d="M24 82c-7 6-5 13 3 13 6 0 10-4 11-9" fill="none" stroke="url(#g)" stroke-width="6" stroke-linecap="round"/>
<path d="M55 71c2-7 7-11 13-11 6 0 11 4 13 11" fill="url(#g)"/><circle cx="68" cy="59" r="4" fill="url(#g)"/>
<circle cx="94" cy="82" r="15" fill="url(#g)"/><path d="m87 82 5 5 10-12" fill="none" stroke="#fff" stroke-width="4.5" stroke-linecap="round" stroke-linejoin="round"/>
</svg>