<svg xmlns="http://www.w3.org/2000/svg" viewBox="0 0 128 128" role="img" aria-label="PMK Perjalanan Dinas Luar Negeri">
<defs><linearGradient id="n" x1="0" y1="0" x2="1" y2="1"><stop stop-color="#173d63"/><stop offset="1" stop-color="#0a2440"/></linearGradient><linearGradient id="g" x1="0" y1="0" x2="1" y2="1"><stop stop-color="#f7dc8f"/><stop offset="1" stop-color="#b7832d"/></linearGradient></defs>
<path d="M64 6 116 36v56L64 122 12 92V36Z" fill="url(#n)" stroke="url(#g)" stroke-width="5"/>
<circle cx="78" cy="61" r="31" fill="#eef4f8" stroke="url(#g)" stroke-width="4"/><path d="M47 61h62M78 30c-8 8-13 19-13 31s5 23 13 31M78 30c8 8 13 19 13 31s-5 23-13 31" fill="none" stroke="#8fa9bf" stroke-width="3"/>
<rect x="25" y="48" width="45" height="50" rx="7" fill="#fff"/><path d="M34 59h27M34 70h23M34 81h26" stroke="#9db1c5" stroke-width="4" stroke-linecap="round"/>
<path d="m84 49 25-11-12 17 10 8-27-4-12 12 5-17-11-8Z" fill="url(#g)"/>
</svg>